<?xml version="1.0" standalone="no"?>
<!DOCTYPE svg PUBLIC "-//W3C//DTD SVG 20010904//EN"
 "http://www.w3.org/TR/2001/REC-SVG-20010904/DTD/svg10.dtd">
<svg version="1.0" xmlns="http://www.w3.org/2000/svg"
 width="256.000000pt" height="256.000000pt" viewBox="0 0 256.000000 256.000000"
 preserveAspectRatio="xMidYMid meet">
<metadata>
Created by potrace 1.11, written by Peter Selinger 2001-2013
</metadata>
<g transform="translate(0.000000,256.000000) scale(0.100000,-0.100000)"
fill="#000000" stroke="none">
<path d="M2032 2547 c-85 -31 -152 -118 -159 -208 -17 -194 166 -326 346 -248
200 85 188 382 -18 455 -45 16 -125 16 -169 1z"/>
<path d="M1368 2405 c-2 -2 -35 -7 -73 -11 -39 -3 -81 -7 -95 -9 -99 -10 -159
-17 -180 -20 -14 -2 -52 -7 -85 -10 -85 -8 -100 -11 -160 -39 -44 -20 -56 -30
-63 -58 -19 -73 20 -88 218 -84 80 2 213 5 296 6 l150 3 113 -89 c106 -85 111
-90 92 -104 -10 -8 -56 -40 -100 -70 -232 -157 -370 -256 -404 -289 -75 -71
-94 -147 -60 -233 18 -47 122 -208 133 -208 4 0 49 -62 100 -137 51 -76 101
-149 112 -162 10 -13 16 -26 14 -29 -3 -2 -40 -6 -83 -8 -418 -19 -463 -23
-512 -46 -56 -27 -87 -87 -66 -127 17 -34 43 -57 80 -71 42 -16 873 -25 919
-10 41 13 73 46 80 81 6 38 -19 88 -201 391 l-161 267 200 126 c110 70 202
125 203 123 2 -2 6 -35 9 -73 11 -136 18 -169 38 -198 l21 -29 161 6 c416 17
408 16 454 58 27 26 29 78 4 101 -23 21 -70 27 -262 31 -85 3 -168 5 -183 5
l-28 1 2 179 2 179 -81 129 c-70 109 -90 134 -139 167 -32 21 -131 88 -220
149 -129 88 -169 110 -201 113 -22 1 -42 1 -44 -1z"/>
<path d="M0 1870 l0 -100 430 0 431 0 137 91 c75 50 141 95 147 100 5 5 -239
9 -568 9 l-577 0 0 -100z"/>
<path d="M2 1478 l3 -103 360 -1 c198 0 365 2 372 4 8 3 8 12 -2 35 -14 33
-14 119 -1 150 8 16 -13 17 -363 17 l-372 0 3 -102z"/>
<path d="M0 1083 l0 -103 485 0 486 0 -36 56 c-79 123 -89 139 -93 144 -2 3
-192 5 -423 5 l-419 0 0 -102z"/>
<path d="M1051 451 c-104 -109 -219 -247 -240 -289 -26 -51 -30 -94 -11 -117
19 -22 61 -43 83 -40 39 7 106 48 162 100 121 110 395 389 389 394 -3 3 -78 6
-167 7 l-162 1 -54 -56z"/>
</g>
</svg>
